# Blender v2.79 (sub 0) OBJ File: ''
# www.blender.org
mtllib test.mtl
o BezierCircle_BezierCircle.004
v -1.000000 0.000000 0.000000
v -0.990868 0.000000 -0.135661
v -0.964268 0.000000 -0.265784
v -0.921393 0.000000 -0.389178
v -0.863435 0.000000 -0.504648
v -0.791589 0.000000 -0.611002
v -0.707047 0.000000 -0.707047
v -0.611002 0.000000 -0.791589
v -0.504648 0.000000 -0.863435
v -0.389178 0.000000 -0.921393
v -0.265784 0.000000 -0.964268
v -0.135661 0.000000 -0.990868
v 0.000000 0.000000 -1.000000
v 0.135661 0.000000 -0.990868
v 0.265784 0.000000 -0.964268
v 0.389178 0.000000 -0.921393
v 0.504648 0.000000 -0.863435
v 0.611002 0.000000 -0.791589
v 0.707047 0.000000 -0.707047
v 0.791589 0.000000 -0.611002
v 0.863435 0.000000 -0.504648
v 0.921393 0.000000 -0.389178
v 0.964268 0.000000 -0.265784
v 0.990868 0.000000 -0.135661
v 1.000000 0.000000 0.000000
v 0.990868 0.000000 0.135661
v 0.964268 0.000000 0.265784
v 0.921393 0.000000 0.389178
v 0.863435 0.000000 0.504648
v 0.791589 0.000000 0.611002
v 0.707047 0.000000 0.707047
v 0.611002 0.000000 0.791589
v 0.504648 0.000000 0.863435
v 0.389178 0.000000 0.921393
v 0.265784 0.000000 0.964268
v 0.135661 0.000000 0.990868
v 0.000000 0.000000 1.000000
v -0.135661 0.000000 0.990868
v -0.265784 0.000000 0.964268
v -0.389178 0.000000 0.921393
v -0.504648 0.000000 0.863435
v -0.611002 0.000000 0.791589
v -0.707047 0.000000 0.707047
v -0.791589 0.000000 0.611002
v -0.863435 0.000000 0.504648
v -0.921393 0.000000 0.389178
v -0.964268 0.000000 0.265784
v -0.990868 0.000000 0.135661
l 1 2
l 2 3
l 3 4
l 4 5
l 5 6
l 6 7
l 7 8
l 8 9
l 9 10
l 10 11
l 11 12
l 12 13
l 13 14
l 14 15
l 15 16
l 16 17
l 17 18
l 18 19
l 19 20
l 20 21
l 21 22
l 22 23
l 23 24
l 24 25
l 25 26
l 26 27
l 27 28
l 28 29
l 29 30
l 30 31
l 31 32
l 32 33
l 33 34
l 34 35
l 35 36
l 36 37
l 37 38
l 38 39
l 39 40
l 40 41
l 41 42
l 42 43
l 43 44
l 44 45
l 45 46
l 46 47
l 47 48
l 48 1
o Plane_Plane.004
v -500.000000 0.000000 500.000000
v 500.000000 0.000000 500.000000
v -500.000000 0.000000 -500.000000
v 500.000000 0.000000 -500.000000
v -0.990868 0.000000 -0.135683
v -0.964254 0.000000 -0.265813
v -0.921369 0.000000 -0.389194
v -0.863403 0.000000 -0.504688
v -0.791579 0.000000 -0.611018
v -0.707030 0.000000 -0.707049
v -0.611007 0.000000 -0.791590
v -0.504613 0.000000 -0.863509
v -0.389159 0.000000 -0.921432
v -0.265777 0.000000 -0.964290
v -0.135660 0.000000 -0.990890
v 0.000000 0.000000 -0.999980
v 0.135660 0.000000 -0.990860
v 0.265777 0.000000 -0.964261
v 0.389159 0.000000 -0.921413
v 0.504673 0.000000 -0.863488
v 0.611007 0.000000 -0.791597
v 0.707030 0.000000 -0.707030
v 0.791609 0.000000 -0.611007
v 0.863492 0.000000 -0.504673
v 0.921398 0.000000 -0.389159
v 0.964254 0.000000 -0.265777
v 0.990868 0.000000 -0.135660
v 0.999957 0.000000 0.000000
v 0.990897 0.000000 0.135660
v 0.964284 0.000000 0.265777
v 0.921398 0.000000 0.389159
v 0.863492 0.000000 0.504613
v 0.791579 0.000000 0.611007
v 0.707030 0.000000 0.707030
v 0.611007 0.000000 0.791579
v 0.504673 0.000000 0.863403
v 0.389159 0.000000 0.921369
v 0.265807 0.000000 0.964254
v 0.135690 0.000000 0.990868
v 0.000030 0.000000 0.999987
v -0.135660 0.000000 0.990868
v -0.265777 0.000000 0.964254
v -0.389159 0.000000 0.921369
v -0.504613 0.000000 0.863403
v -0.610977 0.000000 0.791579
v -0.707030 0.000000 0.707030
v -0.791579 0.000000 0.610990
v -0.863403 0.000000 0.504618
v -0.921369 0.000000 0.389144
v -0.964254 0.000000 0.265770
v -0.990868 0.000000 0.135667
v -0.999987 0.000000 -0.000023
vn 0.0000 1.0000 0.0000
usemtl None
s off
f 49//1 50//1 76//1 77//1 78//1 79//1 80//1 81//1 82//1 83//1 84//1 85//1 86//1 87//1 88//1 89//1 90//1 91//1 92//1 93//1 94//1 95//1 96//1 97//1 98//1 99//1 100//1 51//1
f 51//1 100//1 53//1 54//1 55//1 56//1 57//1 58//1 59//1 60//1 61//1 62//1 63//1 64//1 65//1 66//1 67//1 68//1 69//1 70//1 71//1 72//1 73//1 74//1 75//1 76//1 50//1 52//1
